<svg width="12" height="12" viewBox="0 0 12 12" fill="none" xmlns="http://www.w3.org/2000/svg">
<path fill-rule="evenodd" clip-rule="evenodd" d="M0.256816 11.7429C0.428295 11.9144 0.599646 12 0.856883 12C1.11398 12 1.28546 11.9142 1.45695 11.7429L5.99985 7.19998L10.5427 11.7429C10.7142 11.9144 10.9713 12 11.1428 12C11.3143 12 11.5714 11.9142 11.7429 11.7429C12.0857 11.4001 12.0857 10.8857 11.7429 10.5429L7.19998 6L11.7429 1.4571C12.0857 1.11427 12.0857 0.599952 11.7429 0.257122C11.4 -0.0857074 10.8857 -0.0857074 10.5429 0.257122L6 4.80002L1.4571 0.257122C1.11427 -0.0857074 0.599952 -0.0857074 0.257122 0.257122C-0.0857074 0.599952 -0.0857074 1.11427 0.257122 1.4571L4.80002 6L0.257122 10.5429C-0.0857074 10.8859 -0.0857074 11.4001 0.257122 11.743L0.256816 11.7429Z" fill="white"/>
</svg>
