<svg width="20" height="19" viewBox="0 0 20 19" fill="none" xmlns="http://www.w3.org/2000/svg">
<path fill-rule="evenodd" clip-rule="evenodd" d="M9.64742 0.00319254C7.35673 0.00243054 5.14057 0.81704 3.3957 2.30119C1.65084 3.78533 0.491212 5.84209 0.124444 8.10322C-0.242324 10.3644 0.207714 12.6822 1.39398 14.6418C2.58025 16.6014 4.42529 18.0748 6.59877 18.7981C7.07786 18.8876 7.25673 18.5889 7.25673 18.335C7.25673 18.0811 7.24874 17.3449 7.24395 16.5384C4.56102 17.1229 3.99569 15.4014 3.99569 15.4014C3.55652 14.2835 2.92411 13.9896 2.92411 13.9896C2.04896 13.3908 2.99118 13.4035 2.99118 13.4035C3.95895 13.4722 4.46839 14.3969 4.46839 14.3969C5.32917 15.8725 6.72493 15.4461 7.27589 15.1953C7.36213 14.5725 7.61126 14.1477 7.88754 13.9066C5.74598 13.6622 3.49423 12.835 3.49423 9.13954C3.47988 8.18144 3.83569 7.25473 4.48756 6.55243C4.38695 6.30809 4.05637 5.32754 4.58018 3.99725C4.58018 3.99725 5.38985 3.73854 7.23277 4.98738C8.81377 4.553 10.4826 4.553 12.0636 4.98738C13.9034 3.73854 14.713 3.99725 14.713 3.99725C15.2368 5.32594 14.9079 6.30649 14.8073 6.55243C15.4585 7.25498 15.8138 8.18166 15.799 9.13954C15.799 12.8446 13.544 13.6606 11.3961 13.8986C11.7426 14.1972 12.0509 14.7849 12.0509 15.684C12.0509 16.9744 12.0397 18.014 12.0397 18.3318C12.0397 18.5873 12.2122 18.8892 12.7008 18.7933C14.8735 18.069 16.7175 16.5951 17.9028 14.6354C19.0881 12.6757 19.5372 10.3582 19.17 8.09754C18.8027 5.83693 17.6429 3.78081 15.8981 2.29718C14.1534 0.81354 11.9376 -0.000760467 9.64742 5.32908e-07V0.00319254Z" fill="white"/>
</svg>
