<svg width="24" height="23" viewBox="0 0 24 23" fill="none" xmlns="http://www.w3.org/2000/svg">
<path d="M20.3678 5.21723C20.3678 6.1643 19.6 6.93205 18.6529 6.93205C17.7059 6.93205 16.9381 6.1643 16.9381 5.21723C16.9381 4.27016 17.7059 3.50241 18.6529 3.50241C19.6 3.50241 20.3678 4.27016 20.3678 5.21723Z" fill="#5E5E5E"/>
<path fill-rule="evenodd" clip-rule="evenodd" d="M12.3652 17.221C15.5221 17.221 18.0813 14.6618 18.0813 11.5049C18.0813 8.34799 15.5221 5.78882 12.3652 5.78882C9.20835 5.78882 6.64918 8.34799 6.64918 11.5049C6.64918 14.6618 9.20835 17.221 12.3652 17.221ZM12.3652 14.9345C14.2594 14.9345 15.7949 13.399 15.7949 11.5049C15.7949 9.61075 14.2594 8.07524 12.3652 8.07524C10.4711 8.07524 8.93561 9.61075 8.93561 11.5049C8.93561 13.399 10.4711 14.9345 12.3652 14.9345Z" fill="#5E5E5E"/>
<path fill-rule="evenodd" clip-rule="evenodd" d="M0.933105 11.0476C0.933105 7.20605 0.933105 5.28527 1.68072 3.81799C2.33835 2.52733 3.38768 1.47799 4.67834 0.820371C6.14562 0.0727538 8.0664 0.0727539 11.908 0.0727539H12.8225C16.6641 0.0727539 18.5849 0.0727538 20.0522 0.820371C21.3428 1.47799 22.3922 2.52733 23.0498 3.81799C23.7974 5.28527 23.7974 7.20605 23.7974 11.0476V11.9622C23.7974 15.8037 23.7974 17.7245 23.0498 19.1918C22.3922 20.4825 21.3428 21.5318 20.0522 22.1894C18.5849 22.937 16.6641 22.937 12.8225 22.937H11.908C8.0664 22.937 6.14562 22.937 4.67834 22.1894C3.38768 21.5318 2.33835 20.4825 1.68072 19.1918C0.933105 17.7245 0.933105 15.8037 0.933105 11.9622V11.0476ZM11.908 2.35918H12.8225C14.781 2.35918 16.1124 2.36096 17.1415 2.44504C18.1439 2.52694 18.6565 2.67539 19.0141 2.85759C19.8746 3.29601 20.5741 3.99557 21.0126 4.85601C21.1948 5.2136 21.3432 5.72623 21.4251 6.72863C21.5092 7.75773 21.511 9.0891 21.511 11.0476V11.9622C21.511 13.9207 21.5092 15.2521 21.4251 16.2812C21.3432 17.2836 21.1948 17.7962 21.0126 18.1538C20.5741 19.0142 19.8746 19.7138 19.0141 20.1522C18.6565 20.3344 18.1439 20.4829 17.1415 20.5648C16.1124 20.6488 14.781 20.6506 12.8225 20.6506H11.908C9.94946 20.6506 8.61808 20.6488 7.58899 20.5648C6.58658 20.4829 6.07395 20.3344 5.71636 20.1522C4.85592 19.7138 4.15636 19.0142 3.71795 18.1538C3.53574 17.7962 3.38729 17.2836 3.30539 16.2812C3.22131 15.2521 3.21953 13.9207 3.21953 11.9622V11.0476C3.21953 9.0891 3.22131 7.75773 3.30539 6.72863C3.38729 5.72623 3.53574 5.2136 3.71795 4.85601C4.15636 3.99557 4.85592 3.29601 5.71636 2.85759C6.07395 2.67539 6.58658 2.52694 7.58899 2.44504C8.61808 2.36096 9.94946 2.35918 11.908 2.35918Z" fill="#5E5E5E"/>
</svg>
