<svg width="20" height="21" viewBox="0 0 20 21" fill="none" xmlns="http://www.w3.org/2000/svg">
<path d="M19.2949 10.4999C19.2949 5.17183 14.9756 0.852539 9.64752 0.852539C4.31941 0.852539 0.00012207 5.17183 0.00012207 10.4999C0.00012207 15.8281 4.31941 20.1473 9.64752 20.1473C14.9756 20.1473 19.2949 15.8281 19.2949 10.4999Z" fill="#1275B1"/>
<path d="M7.3174 6.15312C7.3174 6.79712 6.7592 7.31918 6.07063 7.31918C5.38205 7.31918 4.82385 6.79712 4.82385 6.15312C4.82385 5.50912 5.38205 4.98706 6.07063 4.98706C6.7592 4.98706 7.3174 5.50912 7.3174 6.15312Z" fill="white"/>
<path d="M4.99435 8.1763H7.12559V14.6345H4.99435V8.1763Z" fill="white"/>
<path d="M10.5569 8.17628H8.42565V14.6345H10.5569C10.5569 14.6345 10.5569 12.6013 10.5569 11.3301C10.5569 10.5671 10.8174 9.80079 11.8569 9.80079C13.0317 9.80079 13.0247 10.7993 13.0192 11.5729C13.012 12.584 13.0291 13.6159 13.0291 14.6345H15.1604V11.226C15.1423 9.04956 14.5752 8.04672 12.7094 8.04672C11.6014 8.04672 10.9146 8.54974 10.5569 9.00485V8.17628Z" fill="white"/>
</svg>
