<svg width="33" height="33" viewBox="0 0 33 33" fill="none" xmlns="http://www.w3.org/2000/svg">
<path d="M32.2144 16.5049C32.2144 7.66564 25.0488 0.5 16.2095 0.5C7.37023 0.5 0.20459 7.66564 0.20459 16.5049C0.20459 25.3442 7.37023 32.5098 16.2095 32.5098C25.0488 32.5098 32.2144 25.3442 32.2144 16.5049Z" fill="#039BE5"/>
<path d="M22.2424 11.5032C22.3671 10.6978 21.6013 10.062 20.8851 10.3764L6.62068 16.6393C6.10709 16.8648 6.14466 17.6427 6.67733 17.8123L9.61901 18.7491C10.1804 18.9279 10.7884 18.8355 11.2786 18.4967L17.9108 13.9147C18.1108 13.7765 18.3288 14.0609 18.1579 14.2371L13.384 19.1591C12.9209 19.6365 13.0128 20.4456 13.5698 20.7949L18.9148 24.1467C19.5143 24.5227 20.2855 24.145 20.3977 23.4206L22.2424 11.5032Z" fill="white"/>
</svg>
