<svg width="25" height="18" viewBox="0 0 25 18" fill="none" xmlns="http://www.w3.org/2000/svg">
<path d="M0.483335 3.5325C0.592902 1.84567 1.94909 0.523696 3.63741 0.440053C6.08221 0.318931 9.57652 0.172852 12.2094 0.172852C14.8422 0.172852 18.3366 0.318931 20.7813 0.440053C22.4697 0.523696 23.8259 1.84567 23.9354 3.5325C24.0404 5.14861 24.1439 7.13718 24.1439 8.69748C24.1439 10.2578 24.0404 12.2463 23.9354 13.8625C23.8259 15.5493 22.4697 16.8713 20.7813 16.9549C18.3366 17.076 14.8422 17.2221 12.2094 17.2221C9.57652 17.2221 6.08221 17.076 3.63741 16.9549C1.94909 16.8713 0.592902 15.5493 0.483335 13.8625C0.378361 12.2463 0.274902 10.2578 0.274902 8.69748C0.274902 7.13718 0.378361 5.14861 0.483335 3.5325Z" fill="#5E5E5E"/>
<path d="M9.20947 4.69727V12.6973L17.2095 8.69727L9.20947 4.69727Z" fill="black"/>
</svg>
